<?xml version="1.0" encoding="UTF-8" standalone="no"?>
<!-- Created with Inkscape (http://www.inkscape.org/) -->

<svg
   xmlns:dc="http://purl.org/dc/elements/1.1/"
   xmlns:cc="http://creativecommons.org/ns#"
   xmlns:rdf="http://www.w3.org/1999/02/22-rdf-syntax-ns#"
   xmlns:svg="http://www.w3.org/2000/svg"
   xmlns="http://www.w3.org/2000/svg"
   xmlns:sodipodi="http://sodipodi.sourceforge.net/DTD/sodipodi-0.dtd"
   xmlns:inkscape="http://www.inkscape.org/namespaces/inkscape"
   width="1000"
   height="1000"
   viewBox="0 0 264.58333 264.58334"
   version="1.1"
   id="svg8"
   inkscape:version="0.92.4 (f8dce91, 2019-08-02)"
   sodipodi:docname="Square (W) 2.svg"
   inkscape:export-filename="/home/mojtaba/Projects/Design/mrmowji/icon.png"
   inkscape:export-xdpi="150.04799"
   inkscape:export-ydpi="150.04799">
  <sodipodi:namedview
     id="base"
     pagecolor="#ffffff"
     bordercolor="#666666"
     borderopacity="1.0"
     inkscape:pageopacity="1"
     inkscape:pageshadow="2"
     inkscape:zoom="0.37123106"
     inkscape:cx="69.272148"
     inkscape:cy="621.96648"
     inkscape:document-units="mm"
     inkscape:current-layer="layer1"
     showgrid="false"
     inkscape:window-width="1299"
     inkscape:window-height="713"
     inkscape:window-x="67"
     inkscape:window-y="27"
     inkscape:window-maximized="1"
     units="px"
     showguides="true"
     inkscape:guide-bbox="true"
     inkscape:snap-global="true">
    <inkscape:grid
       id="grid830"
       type="xygrid" />
    <sodipodi:guide
       position="81.708336,168.42262"
       orientation="1,0"
       id="guide1013"
       inkscape:locked="false" />
    <sodipodi:guide
       position="139.51784,182.875"
       orientation="0,1"
       id="guide1015"
       inkscape:locked="false" />
    <sodipodi:guide
       position="125.06547,81.708359"
       orientation="0,1"
       id="guide1019"
       inkscape:locked="false" />
    <sodipodi:guide
       position="182.87499,182.875"
       orientation="1,0"
       id="guide1021"
       inkscape:locked="false" />
  </sodipodi:namedview>
  <defs
     id="defs2" />
  <metadata
     id="metadata5">
    <rdf:RDF>
      <cc:Work
         rdf:about="">
        <dc:format>image/svg+xml</dc:format>
        <dc:type
           rdf:resource="http://purl.org/dc/dcmitype/StillImage" />
        <dc:title />
      </cc:Work>
    </rdf:RDF>
  </metadata>
  <g
     id="layer1"
     inkscape:groupmode="layer"
     inkscape:label="Layer 1"
     transform="translate(0,-32.41664)">
    <g
       id="g1623">
      <text
         id="text1077-6"
         y="280.38333"
         x="125.85268"
         style="font-style:normal;font-weight:normal;font-size:3.28239775px;line-height:1.25;font-family:sans-serif;letter-spacing:0px;word-spacing:0px;fill:#000000;fill-opacity:1;stroke:none;stroke-width:0.08205991"
         xml:space="preserve"><tspan
           style="font-style:normal;font-variant:normal;font-weight:normal;font-stretch:normal;font-family:roboto;-inkscape-font-specification:roboto;stroke-width:0.08205991"
           y="280.38333"
           x="125.85268"
           id="tspan1075-2"
           sodipodi:role="line">mrmowji</tspan></text>
      <path
         inkscape:connector-curvature="0"
         id="path1062-8"
         d="m 132.30865,276.23299 v -0.60243 l 0.86505,-0.43213 0.86503,-0.43213 v -0.83119 c 0,-0.64333 -0.009,-0.8308 -0.0424,-0.82939 -0.0233,6.2e-4 -0.41639,0.18998 -0.87349,0.41993 l -0.83111,0.41811 -0.83935,-0.41993 c -0.46164,-0.23096 -0.85471,-0.41993 -0.87352,-0.41993 -0.0225,0 -0.0342,0.49586 -0.0342,1.44172 0,0.79296 -0.008,1.44174 -0.0175,1.44174 -0.009,0 -0.24617,-0.11459 -0.52581,-0.25465 l -0.50841,-0.25463 v -2.06909 c 0,-1.13799 0.006,-2.06909 0.0152,-2.06909 0.008,0 0.62852,0.30532 1.37823,0.67846 0.74969,0.37316 1.38068,0.67846 1.40221,0.67846 0.0216,0 0.6545,-0.3053 1.40663,-0.67846 0.75213,-0.37314 1.37371,-0.67846 1.38129,-0.67846 0.008,0 0.0139,0.93231 0.0139,2.07178 v 2.07176 l -1.37637,0.676 c -0.75702,0.3718 -1.38289,0.67599 -1.39085,0.67599 -0.008,0 -0.0145,-0.2711 -0.0145,-0.60244 z m -0.45393,-5.88065 c -0.23624,-0.0555 -0.56099,-0.23403 -0.7564,-0.41591 l -0.19149,-0.17826 0.68919,-0.76111 c 0.37906,-0.4186 0.69222,-0.76522 0.69592,-0.77024 0.008,-0.0116 1.35289,1.48225 1.36645,1.51781 0.005,0.0141 -0.0755,0.10367 -0.17985,0.19894 -0.2019,0.18454 -0.51497,0.35255 -0.76375,0.40987 -0.18328,0.0421 -0.67817,0.0416 -0.86007,-10e-4 z"
         style="fill:#000000;stroke-width:0.03392297" />
      <path
         style="fill:#000000;fill-opacity:0.12023459;stroke-width:0.00980298"
         inkscape:connector-curvature="0"
         d="m 123.14765,273.19918 c 0.31173,-0.149 0.47446,-0.37446 0.47446,-0.72541 0,-0.6921 -0.51564,-0.86071 -1.11068,-0.86071 h -1.63808 v 3.47418 h 1.68415 c 0.63132,0 1.2244,-0.30291 1.2244,-1.00873 0,-0.43623 -0.20684,-0.75875 -0.63425,-0.87933 z m -1.51065,-0.99304 h 0.7166 c 0.27547,0 0.52348,0.0774 0.52348,0.39702 0,0.29507 -0.19311,0.41369 -0.46564,0.41369 H 121.637 Z m 0.81659,2.29096 H 121.637 v -0.95677 h 0.83228 c 0.33624,0 0.54897,0.14018 0.54897,0.49603 0,0.35095 -0.2539,0.46074 -0.56466,0.46074 z m 3.51438,-2.35958 h -1.40869 v -0.34212 h 1.40869 z m 0.55191,1.72827 c 0,-0.74405 -0.43525,-1.36458 -1.22439,-1.36458 -0.7666,0 -1.28714,0.57642 -1.28714,1.33126 0,0.78325 0.49309,1.32046 1.28714,1.32046 0.60092,0 0.9901,-0.27056 1.17734,-0.846 h -0.60975 c -0.0657,0.21469 -0.33624,0.3284 -0.54603,0.3284 -0.40486,0 -0.61759,-0.23724 -0.61759,-0.64014 h 1.81454 c 0.003,-0.0412 0.006,-0.0853 0.006,-0.12939 z m -1.81943,-0.30586 c 0.0226,-0.33036 0.24213,-0.5372 0.57347,-0.5372 0.34703,0 0.52152,0.2039 0.55093,0.5372 z"
         id="path890-3" />
      <path
         style="fill:#000000;fill-opacity:0.12023459;stroke:none;stroke-width:0.07539427;stroke-linecap:square;stroke-miterlimit:4;stroke-dasharray:none;stroke-opacity:0.67448683;paint-order:markers stroke fill"
         inkscape:connector-curvature="0"
         d="m 115.87567,271.30305 c -1.14688,0 -2.07995,0.93306 -2.07995,2.07994 0,1.14688 0.93307,2.07995 2.07995,2.07995 1.14689,0 2.07994,-0.93307 2.07994,-2.07995 0,-1.14688 -0.93305,-2.07994 -2.07994,-2.07994 z m 1.37519,0.95918 c 0.24744,0.30231 0.39728,0.68735 0.40119,1.10667 -0.0586,-0.0124 -0.64594,-0.13151 -1.23708,-0.0572 -0.0483,-0.11776 -0.0938,-0.22136 -0.15614,-0.34901 0.65687,-0.26819 0.95458,-0.64983 0.99203,-0.70049 z m -0.1975,-0.20545 c -0.032,0.0455 -0.29938,0.40497 -0.93112,0.64176 -0.29112,-0.53489 -0.61379,-0.9743 -0.66289,-1.04005 0.56339,-0.13581 1.15709,0.011 1.59401,0.39829 z m -1.933,-0.27886 c 0.0469,0.0642 0.36431,0.50418 0.65868,1.02746 -0.83104,0.22069 -1.56299,0.2175 -1.64244,0.21646 0.1152,-0.5513 0.48672,-1.00949 0.98376,-1.24392 z m -1.02129,1.60778 c 0,-0.0181 3.7e-4,-0.0362 0.001,-0.0543 0.0778,0.001 0.93866,0.0128 1.82587,-0.25282 0.0508,0.0995 0.0994,0.20057 0.14403,0.3015 -0.64242,0.18094 -1.22609,0.70053 -1.51407,1.1935 -0.28376,-0.31496 -0.45674,-0.73158 -0.45674,-1.18789 z m 0.68611,1.40155 c 0.18558,-0.37936 0.68923,-0.86907 1.40546,-1.1134 0.24943,0.64816 0.35257,1.19137 0.37899,1.34725 -0.57123,0.24333 -1.25814,0.17657 -1.78445,-0.23385 z m 2.08313,0.0712 c -0.0183,-0.10811 -0.11278,-0.62815 -0.34514,-1.26669 0.55673,-0.0891 1.04585,0.0568 1.10663,0.076 -0.0792,0.49433 -0.36293,0.92125 -0.76149,1.19075 z"
         id="path901" />
      <path
         style="fill:#000000;fill-opacity:0.12023459;stroke-width:0.00980298"
         inkscape:connector-curvature="0"
         d="m 142.45634,272.36069 c 0.003,0.0446 0.003,0.0892 0.003,0.13376 0,1.35988 -1.03503,2.92676 -2.92676,2.92676 -0.58281,0 -1.12421,-0.16879 -1.57962,-0.46178 0.0828,0.01 0.16241,0.0127 0.2484,0.0127 0.48089,0 0.92357,-0.16241 1.27708,-0.43948 -0.45224,-0.01 -0.83122,-0.30574 -0.96179,-0.71338 0.0637,0.01 0.12739,0.0159 0.19427,0.0159 0.0924,0 0.18472,-0.0127 0.2707,-0.035 -0.47134,-0.0956 -0.82485,-0.50956 -0.82485,-1.00956 v -0.0127 c 0.13693,0.0764 0.29619,0.1242 0.46497,0.13056 -0.27708,-0.18471 -0.4586,-0.5 -0.4586,-0.85669 0,-0.19108 0.051,-0.36624 0.14012,-0.5191 0.50638,0.6242 1.26753,1.03184 2.12103,1.07643 -0.0159,-0.0764 -0.0255,-0.15604 -0.0255,-0.23566 0,-0.56689 0.4586,-1.02867 1.02866,-1.02867 0.29618,0 0.5637,0.12421 0.7516,0.32484 0.23248,-0.0446 0.45541,-0.13057 0.65287,-0.24841 -0.0764,0.23886 -0.23886,0.4395 -0.45223,0.56688 0.20701,-0.0223 0.40764,-0.0796 0.59235,-0.15923 -0.1401,0.20381 -0.31527,0.38534 -0.51591,0.53184 z"
         id="path912" />
      <path
         style="fill:#000000;fill-opacity:0.12023459;stroke-width:0.00980298"
         inkscape:connector-curvature="0"
         d="m 148.08739,272.25664 c -0.62348,0 -1.12637,0.50288 -1.12637,1.12635 0,0.62347 0.50289,1.12636 1.12637,1.12636 0.62347,0 1.12636,-0.50289 1.12636,-1.12636 0,-0.62347 -0.50289,-1.12635 -1.12636,-1.12635 z m 0,1.85863 c -0.40291,0 -0.73229,-0.3284 -0.73229,-0.73228 0,-0.40389 0.32841,-0.73228 0.73229,-0.73228 0.40388,0 0.73228,0.32839 0.73228,0.73228 0,0.40388 -0.32938,0.73228 -0.73228,0.73228 z m 1.43515,-1.90472 c 0,0.14607 -0.11764,0.26272 -0.26272,0.26272 -0.14606,0 -0.26271,-0.11763 -0.26271,-0.26272 0,-0.14508 0.11763,-0.26272 0.26271,-0.26272 0.14508,0 0.26272,0.11764 0.26272,0.26272 z m 0.74602,0.26664 c -0.0167,-0.35192 -0.097,-0.66366 -0.35487,-0.9205 -0.25685,-0.25684 -0.56858,-0.33722 -0.92051,-0.35487 -0.36271,-0.0206 -1.44986,-0.0206 -1.81257,0 -0.35095,0.0167 -0.66268,0.097 -0.9205,0.35389 -0.25782,0.25684 -0.33722,0.56857 -0.35487,0.9205 -0.0206,0.36272 -0.0206,1.44986 0,1.81258 0.0167,0.35192 0.0971,0.66366 0.35487,0.9205 0.25782,0.25684 0.56858,0.33722 0.9205,0.35487 0.36271,0.0206 1.44986,0.0206 1.81257,0 0.35193,-0.0167 0.66366,-0.0971 0.92051,-0.35487 0.25684,-0.25684 0.33722,-0.56858 0.35487,-0.9205 0.0206,-0.36272 0.0206,-1.44889 0,-1.8116 z m -0.46859,2.20077 c -0.0765,0.19214 -0.22449,0.34017 -0.41761,0.41761 -0.28919,0.11469 -0.9754,0.0882 -1.29497,0.0882 -0.31958,0 -1.00677,0.0255 -1.29498,-0.0882 -0.19214,-0.0765 -0.34016,-0.22449 -0.41761,-0.41761 -0.11469,-0.28918 -0.0882,-0.97539 -0.0882,-1.29497 0,-0.31957 -0.0255,-1.00677 0.0882,-1.29498 0.0765,-0.19213 0.2245,-0.34016 0.41761,-0.4176 0.28919,-0.1147 0.9754,-0.0882 1.29498,-0.0882 0.31957,0 1.00676,-0.0255 1.29497,0.0882 0.19214,0.0765 0.34016,0.22449 0.41761,0.4176 0.1147,0.28919 0.0882,0.9754 0.0882,1.29498 0,0.31958 0.0264,1.00676 -0.0882,1.29497 z"
         id="path923" />
      <text
         id="text974"
         y="282.72983"
         x="125.77513"
         style="font-style:normal;font-weight:normal;font-size:1.48477137px;line-height:1.25;font-family:sans-serif;letter-spacing:0px;word-spacing:0px;fill:#000000;fill-opacity:0.51319646;stroke:none;stroke-width:0.03711928"
         xml:space="preserve"><tspan
           style="font-style:normal;font-variant:normal;font-weight:normal;font-stretch:normal;font-family:roboto;-inkscape-font-specification:roboto;fill:#000000;fill-opacity:0.51319646;stroke-width:0.03711928"
           y="282.72983"
           x="125.77513"
           id="tspan972"
           sodipodi:role="line">Almost everywhere!</tspan></text>
    </g>
    <g
       id="g4584"
       transform="matrix(5.2481094,0,0,5.2481094,63.657365,-1318.5977)">
      <rect
         y="274.92554"
         x="3.4395528"
         height="15.421439"
         width="3.855346"
         id="rect852"
         style="opacity:1;vector-effect:none;fill:#000000;fill-opacity:1;stroke:none;stroke-width:1.47452343;stroke-linecap:round;stroke-linejoin:miter;stroke-miterlimit:4;stroke-dasharray:none;stroke-dashoffset:75.59055328;stroke-opacity:1;paint-order:normal" />
      <rect
         style="opacity:1;vector-effect:none;fill:#000000;fill-opacity:1;stroke:none;stroke-width:1.47452343;stroke-linecap:round;stroke-linejoin:miter;stroke-miterlimit:4;stroke-dasharray:none;stroke-dashoffset:75.59055328;stroke-opacity:1;paint-order:normal"
         id="rect854"
         width="3.855346"
         height="15.421439"
         x="11.150263"
         y="274.92554" />
      <rect
         y="274.92554"
         x="18.860952"
         height="15.421439"
         width="3.855346"
         id="rect856"
         style="opacity:1;vector-effect:none;fill:#000000;fill-opacity:1;stroke:none;stroke-width:1.47452343;stroke-linecap:round;stroke-linejoin:miter;stroke-miterlimit:4;stroke-dasharray:none;stroke-dashoffset:75.59055328;stroke-opacity:1;paint-order:normal" />
      <rect
         transform="rotate(90)"
         style="opacity:1;vector-effect:none;fill:#000000;fill-opacity:1;stroke:none;stroke-width:1.6485666;stroke-linecap:round;stroke-linejoin:miter;stroke-miterlimit:4;stroke-dasharray:none;stroke-dashoffset:75.59055328;stroke-opacity:1;paint-order:normal"
         id="rect858"
         width="3.855346"
         height="19.276785"
         x="274.92554"
         y="-22.716303" />
    </g>
  </g>
</svg>
